<svg xmlns="http://www.w3.org/2000/svg" xmlns:xlink="http://www.w3.org/1999/xlink" version="1.1" x="0px" y="0px" viewBox="0 0 100 100" enable-background="new 0 0 100 100" xml:space="preserve"><polygon fill="#ffffff" points="14.492,9.911 7.099,2.519 5.616,4.002 10.067,8.454 5.615,12.906 7.099,14.39 5.615,15.873   10.067,20.324 5.616,24.777 7.099,26.26 14.492,18.867 10.014,14.39 "/><polygon fill="#ffffff" points="21.886,14.39 23.368,12.906 18.917,8.454 23.368,4.001 21.886,2.519 14.492,9.911 18.97,14.39   14.492,18.867 21.886,26.26 23.368,24.776 18.917,20.324 23.368,15.873 "/><polygon fill="#ffffff" points="32.246,9.911 24.853,2.519 23.369,4.002 27.821,8.454 23.368,12.906 24.853,14.39 23.368,15.873   27.821,20.324 23.369,24.777 24.853,26.26 32.246,18.867 27.768,14.39 "/><polygon fill="#ffffff" points="39.64,14.39 41.122,12.906 36.671,8.454 41.122,4.001 39.64,2.519 32.246,9.911 36.725,14.39   32.246,18.867 39.64,26.26 41.122,24.776 36.671,20.324 41.122,15.873 "/><polygon fill="#ffffff" points="50,9.911 42.606,2.519 41.123,4.002 45.574,8.454 41.122,12.906 42.606,14.39 41.122,15.873   45.574,20.324 41.123,24.777 42.606,26.26 50,18.867 45.521,14.39 "/><polygon fill="#ffffff" points="57.394,14.39 58.877,12.906 54.426,8.454 58.875,4.001 57.394,2.519 50,9.911 54.479,14.39   50,18.867 57.394,26.26 58.875,24.776 54.426,20.324 58.877,15.873 "/><polygon fill="#ffffff" points="67.753,9.911 60.36,2.519 58.877,4.002 63.329,8.454 58.877,12.906 60.36,14.39 58.877,15.873   63.329,20.324 58.877,24.777 60.36,26.26 67.753,18.867 63.276,14.39 "/><polygon fill="#ffffff" points="75.146,14.39 76.631,12.906 72.18,8.454 76.629,4.001 75.146,2.519 67.753,9.911 72.232,14.39   67.753,18.867 75.146,26.26 76.629,24.776 72.18,20.324 76.631,15.873 "/><polygon fill="#ffffff" points="85.508,9.911 78.114,2.519 76.631,4.002 81.082,8.454 76.631,12.906 78.114,14.39 76.631,15.873   81.082,20.324 76.631,24.777 78.114,26.26 85.508,18.867 81.03,14.39 "/><polygon fill="#ffffff" points="92.899,14.39 94.385,12.906 89.933,8.454 94.383,4.001 92.899,2.519 85.508,9.911 89.985,14.39   85.508,18.867 92.899,26.26 94.383,24.776 89.933,20.324 94.385,15.873 "/><polygon fill="#ffffff" points="14.492,33.652 7.099,26.26 5.616,27.743 10.067,32.195 5.615,36.646 7.099,38.13 5.615,39.613   10.067,44.065 5.616,48.518 7.099,50 14.492,42.607 10.014,38.13 "/><polygon fill="#ffffff" points="21.886,38.13 23.368,36.646 18.917,32.195 23.368,27.742 21.886,26.26 14.492,33.652 18.97,38.13   14.492,42.607 21.886,50 23.368,48.517 18.917,44.065 23.368,39.613 "/><polygon fill="#ffffff" points="32.246,33.652 24.853,26.26 23.369,27.743 27.821,32.195 23.368,36.646 24.853,38.13 23.368,39.613   27.821,44.065 23.369,48.518 24.853,50 32.246,42.607 27.768,38.13 "/><polygon fill="#ffffff" points="39.64,38.13 41.122,36.646 36.671,32.195 41.122,27.742 39.64,26.26 32.246,33.652 36.725,38.13   32.246,42.607 39.64,50 41.122,48.517 36.671,44.065 41.122,39.613 "/><polygon fill="#ffffff" points="50,33.652 42.606,26.26 41.123,27.743 45.574,32.195 41.122,36.646 42.606,38.13 41.122,39.613   45.574,44.065 41.123,48.518 42.606,50 50,42.607 45.521,38.13 "/><polygon fill="#ffffff" points="57.394,38.13 58.877,36.646 54.426,32.195 58.875,27.742 57.394,26.26 50,33.652 54.479,38.13   50,42.607 57.394,50 58.875,48.517 54.426,44.065 58.877,39.613 "/><polygon fill="#ffffff" points="67.753,33.652 60.36,26.26 58.877,27.743 63.329,32.195 58.877,36.646 60.36,38.13 58.877,39.613   63.329,44.065 58.877,48.518 60.36,50 67.753,42.607 63.276,38.13 "/><polygon fill="#ffffff" points="75.146,38.13 76.631,36.646 72.18,32.195 76.629,27.742 75.146,26.26 67.753,33.652 72.232,38.13   67.753,42.607 75.146,50 76.629,48.517 72.18,44.065 76.631,39.613 "/><polygon fill="#ffffff" points="85.508,33.652 78.114,26.26 76.631,27.743 81.082,32.195 76.631,36.646 78.114,38.13 76.631,39.613   81.082,44.065 76.631,48.518 78.114,50 85.508,42.607 81.03,38.13 "/><polygon fill="#ffffff" points="92.899,38.13 94.385,36.646 89.933,32.195 94.383,27.742 92.899,26.26 85.508,33.652 89.985,38.13   85.508,42.607 92.899,50 94.383,48.517 89.933,44.065 94.385,39.613 "/><polygon fill="#ffffff" points="14.492,57.394 7.099,50 5.616,51.484 10.067,55.935 5.615,60.387 7.099,61.87 5.615,63.354   10.067,67.805 5.616,72.257 7.099,73.741 14.492,66.348 10.014,61.87 "/><polygon fill="#ffffff" points="21.886,61.87 23.368,60.387 18.917,55.935 23.368,51.481 21.886,50 14.492,57.394 18.97,61.87   14.492,66.348 21.886,73.741 23.368,72.257 18.917,67.805 23.368,63.354 "/><polygon fill="#ffffff" points="32.246,57.394 24.853,50 23.369,51.484 27.821,55.935 23.368,60.387 24.853,61.87 23.368,63.354   27.821,67.805 23.369,72.257 24.853,73.741 32.246,66.348 27.768,61.87 "/><polygon fill="#ffffff" points="39.64,61.87 41.122,60.387 36.671,55.935 41.122,51.481 39.64,50 32.246,57.394 36.725,61.87   32.246,66.348 39.64,73.741 41.122,72.257 36.671,67.805 41.122,63.354 "/><polygon fill="#ffffff" points="50,57.394 42.606,50 41.123,51.484 45.574,55.935 41.122,60.387 42.606,61.87 41.122,63.354   45.574,67.805 41.123,72.257 42.606,73.741 50,66.348 45.521,61.87 "/><polygon fill="#ffffff" points="57.394,61.87 58.877,60.387 54.426,55.935 58.875,51.481 57.394,50 50,57.394 54.479,61.87   50,66.348 57.394,73.741 58.875,72.257 54.426,67.805 58.877,63.354 "/><polygon fill="#ffffff" points="67.753,57.394 60.36,50 58.877,51.484 63.329,55.935 58.877,60.387 60.36,61.87 58.877,63.354   63.329,67.805 58.877,72.257 60.36,73.741 67.753,66.348 63.276,61.87 "/><polygon fill="#ffffff" points="75.146,61.87 76.631,60.387 72.18,55.935 76.629,51.481 75.146,50 67.753,57.394 72.232,61.87   67.753,66.348 75.146,73.741 76.629,72.257 72.18,67.805 76.631,63.354 "/><polygon fill="#ffffff" points="85.508,57.394 78.114,50 76.631,51.484 81.082,55.935 76.631,60.387 78.114,61.87 76.631,63.354   81.082,67.805 76.631,72.257 78.114,73.741 85.508,66.348 81.03,61.87 "/><polygon fill="#ffffff" points="92.899,61.87 94.385,60.387 89.933,55.935 94.383,51.481 92.899,50 85.508,57.394 89.985,61.87   85.508,66.348 92.899,73.741 94.383,72.257 89.933,67.805 94.385,63.354 "/><polygon fill="#ffffff" points="14.492,81.135 7.099,73.741 5.616,75.224 10.067,79.676 5.615,84.128 7.099,85.612 5.615,87.094   10.067,91.546 5.616,95.998 7.099,97.48 14.492,90.089 10.014,85.612 "/><polygon fill="#ffffff" points="21.886,85.612 23.368,84.128 18.917,79.676 23.368,75.224 21.886,73.741 14.492,81.135   18.97,85.612 14.492,90.089 21.886,97.48 23.368,95.998 18.917,91.546 23.368,87.094 "/><polygon fill="#ffffff" points="32.246,81.135 24.853,73.741 23.369,75.224 27.821,79.676 23.368,84.128 24.853,85.612   23.368,87.094 27.821,91.546 23.369,95.998 24.853,97.48 32.246,90.089 27.768,85.612 "/><polygon fill="#ffffff" points="39.64,85.612 41.122,84.128 36.671,79.676 41.122,75.224 39.64,73.741 32.246,81.135 36.725,85.612   32.246,90.089 39.64,97.48 41.122,95.998 36.671,91.546 41.122,87.094 "/><polygon fill="#ffffff" points="50,81.135 42.606,73.741 41.123,75.224 45.574,79.676 41.122,84.128 42.606,85.612 41.122,87.094   45.574,91.546 41.123,95.998 42.606,97.48 50,90.089 45.521,85.612 "/><polygon fill="#ffffff" points="57.394,85.612 58.877,84.128 54.426,79.676 58.875,75.224 57.394,73.741 50,81.135 54.479,85.612   50,90.089 57.394,97.48 58.875,95.998 54.426,91.546 58.877,87.094 "/><polygon fill="#ffffff" points="67.753,81.135 60.36,73.741 58.877,75.224 63.329,79.676 58.877,84.128 60.36,85.612 58.877,87.094   63.329,91.546 58.877,95.998 60.36,97.48 67.753,90.089 63.276,85.612 "/><polygon fill="#ffffff" points="75.146,85.612 76.631,84.128 72.18,79.676 76.629,75.224 75.146,73.741 67.753,81.135   72.232,85.612 67.753,90.089 75.146,97.48 76.629,95.998 72.18,91.546 76.631,87.094 "/><polygon fill="#ffffff" points="85.508,81.135 78.114,73.741 76.631,75.224 81.082,79.676 76.631,84.128 78.114,85.612   76.631,87.094 81.082,91.546 76.631,95.998 78.114,97.48 85.508,90.089 81.03,85.612 "/><polygon fill="#ffffff" points="92.899,85.612 94.385,84.128 89.933,79.676 94.383,75.224 92.899,73.741 85.508,81.135   89.985,85.612 85.508,90.089 92.899,97.48 94.383,95.998 89.933,91.546 94.385,87.094 "/></svg>
