<svg xmlns="http://www.w3.org/2000/svg" xmlns:xlink="http://www.w3.org/1999/xlink" version="1.1" x="0px" y="0px" viewBox="0 0 84.503 84.503" enable-background="new 0 0 84.503 84.503" xml:space="preserve"><path fill="#ffffff" d="M25.697,25.583L25.697,25.583c1.573-1.602,2.438-3.718,2.437-5.959l-1.984,0.001  c0.001,1.718-0.663,3.34-1.868,4.568l0,0.001c-1.235,1.259-2.888,1.953-4.656,1.953c-3.597,0-6.523-2.926-6.523-6.522h-1.984  c0,4.69,3.816,8.507,8.508,8.507C21.93,28.131,24.086,27.226,25.697,25.583z"/><circle fill="#ffffff" cx="14.929" cy="15.338" r="1.838"/><circle fill="#ffffff" cx="24.228" cy="15.338" r="1.838"/><path fill="#ffffff" d="M42.251,28.131c2.305,0,4.462-0.905,6.072-2.548v0c0.001,0,0.001,0,0.001,0  c1.572-1.603,2.438-3.718,2.436-5.959l-1.984,0.002c0.002,1.717-0.662,3.339-1.868,4.567l-0.001,0.001  c-1.233,1.26-2.887,1.953-4.655,1.953c-3.597,0-6.523-2.926-6.523-6.522h-1.984C33.744,24.315,37.56,28.131,42.251,28.131z"/><circle fill="#ffffff" cx="37.555" cy="15.338" r="1.838"/><circle fill="#ffffff" cx="46.854" cy="15.338" r="1.838"/><path fill="#ffffff" d="M64.878,28.131c2.305,0,4.462-0.905,6.072-2.548v0c0.001,0,0.001,0,0.001,0  c1.572-1.603,2.438-3.718,2.436-5.959l-1.984,0.002c0.002,1.717-0.662,3.339-1.868,4.567l-0.001,0.001  c-1.233,1.26-2.887,1.953-4.655,1.953c-3.597,0-6.523-2.926-6.523-6.522h-1.984C56.371,24.315,60.187,28.131,64.878,28.131z"/><circle fill="#ffffff" cx="60.182" cy="15.338" r="1.838"/><circle fill="#ffffff" cx="69.481" cy="15.338" r="1.838"/><path fill="#ffffff" d="M25.697,48.21L25.697,48.21c1.573-1.602,2.438-3.718,2.437-5.958l-1.984,0.001  c0.001,1.717-0.663,3.339-1.868,4.568v0.001c-1.235,1.259-2.889,1.952-4.656,1.952c-3.597,0-6.523-2.926-6.523-6.521h-1.984  c0,4.69,3.816,8.506,8.508,8.506C21.929,50.758,24.086,49.854,25.697,48.21z"/><circle fill="#ffffff" cx="14.929" cy="37.965" r="1.839"/><circle fill="#ffffff" cx="24.228" cy="37.965" r="1.839"/><path fill="#ffffff" d="M42.251,50.758c2.306,0,4.462-0.905,6.072-2.548v0.001c1.573-1.604,2.438-3.72,2.437-5.96l-1.984,0.002  c0.002,1.716-0.662,3.338-1.868,4.567v0.001c-1.234,1.259-2.888,1.952-4.656,1.952c-3.597,0-6.523-2.926-6.523-6.521h-1.984  C33.744,46.943,37.56,50.758,42.251,50.758z"/><circle fill="#ffffff" cx="37.555" cy="37.965" r="1.839"/><circle fill="#ffffff" cx="46.854" cy="37.965" r="1.839"/><path fill="#ffffff" d="M77.184,42.252c0-5.07-3.083-9.432-7.473-11.314c4.39-1.882,7.473-6.244,7.473-11.314  c0-6.785-5.521-12.306-12.306-12.306c-5.069,0-9.431,3.083-11.313,7.472c-1.883-4.389-6.244-7.472-11.313-7.472  s-9.43,3.083-11.313,7.471c-1.883-4.388-6.244-7.471-11.313-7.471c-6.785,0-12.306,5.521-12.306,12.306  c0,5.07,3.083,9.432,7.473,11.314c-4.389,1.882-7.473,6.244-7.473,11.314c0,5.07,3.083,9.431,7.472,11.313  c-4.389,1.882-7.472,6.243-7.472,11.313c0,6.785,5.521,12.305,12.306,12.305c5.069,0,9.43-3.082,11.313-7.47  c1.883,4.388,6.244,7.47,11.313,7.47s9.431-3.082,11.313-7.471c1.883,4.389,6.244,7.471,11.313,7.471  c6.785,0,12.306-5.52,12.306-12.305c0-5.07-3.083-9.432-7.473-11.313C74.101,51.683,77.184,47.323,77.184,42.252z M64.878,9.303  c5.691,0,10.321,4.63,10.321,10.321s-4.63,10.321-10.321,10.321s-10.321-4.63-10.321-10.321S59.187,9.303,64.878,9.303z   M60.045,30.938c-2.904,1.246-5.235,3.576-6.48,6.48c-1.245-2.904-3.576-5.234-6.48-6.48c2.904-1.246,5.235-3.576,6.48-6.48  C54.81,27.362,57.141,29.693,60.045,30.938z M31.931,42.243c0.005-5.687,4.633-10.312,10.321-10.312  c5.691,0,10.321,4.63,10.321,10.321c0,5.69-4.63,10.32-10.321,10.32c-5.688,0-10.315-4.625-10.321-10.311c0-0.003,0-0.006,0-0.01  S31.931,42.246,31.931,42.243z M31.931,19.615c0.005-5.687,4.633-10.312,10.321-10.312c5.691,0,10.321,4.63,10.321,10.321  s-4.63,10.321-10.321,10.321c-5.688,0-10.315-4.625-10.321-10.312c0-0.003,0-0.006,0-0.01S31.931,19.618,31.931,19.615z   M37.418,30.938c-2.904,1.245-5.234,3.576-6.48,6.479c-1.246-2.903-3.576-5.234-6.48-6.479c2.904-1.245,5.234-3.576,6.48-6.479  C32.184,27.363,34.515,29.693,37.418,30.938z M9.304,19.625c0-5.691,4.63-10.321,10.321-10.321c5.688,0,10.315,4.625,10.321,10.312  c0,0.003,0,0.006,0,0.01s0,0.006,0,0.01c-0.005,5.687-4.633,10.312-10.321,10.312C13.934,29.946,9.304,25.316,9.304,19.625z   M9.304,42.252c0-5.691,4.63-10.321,10.321-10.321c5.688,0,10.315,4.625,10.321,10.312c0,0.003,0,0.006,0,0.01s0,0.006,0,0.01  c-0.005,5.686-4.633,10.311-10.321,10.311C13.934,52.573,9.304,47.943,9.304,42.252z M29.946,64.889  C29.941,70.575,25.313,75.2,19.625,75.2c-5.691,0-10.321-4.63-10.321-10.32c0-5.691,4.63-10.321,10.321-10.321  c5.688,0,10.315,4.625,10.321,10.312c0,0.003,0,0.007,0,0.01S29.946,64.886,29.946,64.889z M24.459,53.566  c2.903-1.245,5.234-3.575,6.479-6.479c1.246,2.903,3.576,5.233,6.479,6.479c-2.903,1.245-5.234,3.575-6.479,6.479  C29.693,57.141,27.362,54.811,24.459,53.566z M42.251,75.2c-5.688,0-10.315-4.625-10.321-10.311c0-0.003,0-0.007,0-0.01  s0-0.007,0-0.01c0.005-5.687,4.633-10.312,10.321-10.312c5.691,0,10.321,4.63,10.321,10.321C52.573,70.57,47.943,75.2,42.251,75.2z   M47.084,53.566c2.904-1.246,5.235-3.576,6.48-6.479c1.245,2.903,3.576,5.233,6.48,6.479c-2.904,1.245-5.235,3.575-6.48,6.479  C52.32,57.141,49.989,54.811,47.084,53.566z M75.2,64.879c0,5.69-4.63,10.32-10.321,10.32s-10.321-4.63-10.321-10.32  c0-5.691,4.63-10.321,10.321-10.321S75.2,59.188,75.2,64.879z M64.878,52.573c-5.691,0-10.321-4.63-10.321-10.32  c0-5.691,4.63-10.321,10.321-10.321S75.2,36.561,75.2,42.252C75.2,47.943,70.57,52.573,64.878,52.573z"/><path fill="#ffffff" d="M71.403,42.253c0.002,1.716-0.662,3.338-1.868,4.567v0.001c-1.234,1.259-2.888,1.952-4.656,1.952  c-3.597,0-6.523-2.926-6.523-6.521h-1.984c0,4.69,3.816,8.506,8.508,8.506c2.306,0,4.462-0.905,6.072-2.548v0.001  c1.573-1.604,2.438-3.72,2.437-5.96L71.403,42.253z"/><circle fill="#ffffff" cx="60.182" cy="37.965" r="1.839"/><circle fill="#ffffff" cx="69.481" cy="37.965" r="1.839"/><path fill="#ffffff" d="M24.282,69.448L24.282,69.448c-1.235,1.26-2.889,1.953-4.656,1.953c-3.597,0-6.523-2.926-6.523-6.521h-1.984  c0,4.69,3.816,8.506,8.508,8.506c2.304,0,4.46-0.904,6.072-2.548l0,0.001c1.572-1.603,2.438-3.719,2.437-5.959H26.15  C26.151,66.597,25.487,68.219,24.282,69.448z"/><circle fill="#ffffff" cx="14.929" cy="60.593" r="1.838"/><circle fill="#ffffff" cx="24.228" cy="60.593" r="1.838"/><path fill="#ffffff" d="M46.908,69.448L46.908,69.448c-1.234,1.26-2.888,1.953-4.656,1.953c-3.597,0-6.523-2.926-6.523-6.521h-1.984  c0,4.69,3.816,8.506,8.508,8.506c2.306,0,4.462-0.905,6.072-2.548v0.001c1.573-1.604,2.438-3.72,2.437-5.96l-1.984,0.002  C48.778,66.596,48.114,68.218,46.908,69.448z"/><circle fill="#ffffff" cx="37.555" cy="60.593" r="1.838"/><circle fill="#ffffff" cx="46.854" cy="60.593" r="1.838"/><path fill="#ffffff" d="M69.535,69.449c-1.234,1.259-2.888,1.952-4.656,1.952c-3.597,0-6.523-2.926-6.523-6.521h-1.984  c0,4.69,3.816,8.506,8.508,8.506c2.306,0,4.462-0.905,6.072-2.548v0.001c1.573-1.604,2.438-3.72,2.437-5.96l-1.984,0.002  C71.405,66.596,70.741,68.218,69.535,69.449L69.535,69.449z"/><circle fill="#ffffff" cx="60.182" cy="60.593" r="1.838"/><circle fill="#ffffff" cx="69.481" cy="60.593" r="1.838"/></svg>
