<svg width="396" height="396" viewBox="0 0 396 396" xmlns="http://www.w3.org/2000/svg">
    <title>
        Filecoin Logo
    </title>
    <g fill="none" fill-rule="evenodd">
        <path d="M393.756 227.08c-15.952 107.983-116.549 182.609-224.689 166.68C60.927 377.832-13.805 277.381 2.144 169.398 18.096 61.414 118.692-13.212 226.833 2.717c108.14 15.928 182.874 116.379 166.923 224.362" fill="#42C1CA"/>
        <path d="M286.733 79.68c-40.018-25.273-68.635 30.367-69.306 32.057-7.136 13.893-13.01 35.166-16.65 51.03l-52.26-7.701-2.049 14.037 51.448 7.579c-1.425 7.34-2.152 12.06-2.152 12.06l-2.535 15.466.144.021c-.052.303-.104.618-.156.918l-51.068-7.52-1.918 14.052 50.46 7.435c-13.263 66.849-23.075 87.007-32.958 98.072-2.01 2.37-16.178 11.837-23.308-5.099-4.981-11.833-14.431-10.205-14.431-10.205-2.667-.254-15.066 7.744 4.361 20.015 40.015 25.273 68.635-30.367 69.307-32.053 7.132-13.893 16.644-51.444 20.289-67.305l52.456 7.726 2.047-14.034-51.646-7.61c1.425-7.336 2.154-12.056 2.154-12.056l2.532-15.47-.144-.021c.055-.3.104-.618.16-.918l51.064 7.523 1.92-14.055-50.459-7.432c13.264-66.852 19.437-70.739 29.317-81.8 2.01-2.367 16.181-11.837 23.308 5.101 4.981 11.83 14.435 10.202 14.435 10.202 2.666.254 15.062-7.747-4.362-20.015" fill="#FEFEFE"/>
    </g>
</svg>
