<?xml version="1.0" standalone="no"?>
<!DOCTYPE svg PUBLIC "-//W3C//DTD SVG 20010904//EN"
 "http://www.w3.org/TR/2001/REC-SVG-20010904/DTD/svg10.dtd">
<svg version="1.0" xmlns="http://www.w3.org/2000/svg"
 width="700.000000pt" height="700.000000pt" viewBox="0 0 700.000000 700.000000"
 preserveAspectRatio="xMidYMid meet">
<metadata>
Created by potrace 1.11, written by Peter Selinger 2001-2013
</metadata>
<g transform="translate(0.000000,700.000000) scale(0.100000,-0.100000)"
fill="#000000" stroke="none">
<path d="M3295 6984 c-22 -2 -92 -9 -155 -15 -1008 -95 -1958 -662 -2535
-1513 -327 -482 -512 -989 -587 -1606 -17 -137 -16 -573 0 -715 73 -616 281
-1169 625 -1655 210 -298 521 -609 824 -828 290 -209 685 -401 1027 -501 846
-247 1723 -181 2501 188 790 375 1412 1030 1741 1832 125 304 205 628 245 989
16 144 16 528 0 680 -89 842 -456 1592 -1067 2180 -539 518 -1214 839 -1978
940 -144 20 -540 34 -641 24z m1580 -1304 c184 -57 362 -195 381 -295 8 -43
-20 -102 -60 -126 -39 -24 -109 -24 -161 0 -56 25 -101 75 -141 154 -81 160
-166 205 -304 160 -97 -31 -231 -179 -310 -341 -71 -145 -117 -285 -192 -587
-37 -150 -129 -577 -125 -581 1 -1 199 -31 440 -67 240 -35 440 -67 443 -70 4
-4 -24 -239 -29 -243 -1 -1 -195 27 -432 62 -236 35 -440 64 -451 64 -19 0
-22 -8 -28 -62 -4 -35 -22 -146 -40 -248 -18 -102 -33 -186 -32 -187 0 0 203
-31 450 -67 247 -37 452 -69 454 -71 5 -5 -25 -235 -31 -242 -2 -2 -201 26
-442 62 -242 36 -449 65 -461 65 -18 0 -25 -8 -33 -37 -6 -21 -11 -43 -11 -48
0 -44 -175 -663 -247 -875 -80 -235 -198 -431 -359 -600 -111 -116 -172 -164
-276 -220 -199 -107 -407 -112 -603 -13 -154 78 -265 190 -265 268 0 69 59
125 132 125 101 0 164 -48 235 -178 75 -138 134 -180 239 -169 103 11 179 71
267 209 129 204 249 550 371 1068 51 220 118 532 114 535 -2 2 -192 30 -423
64 -231 34 -430 64 -443 66 -21 5 -23 10 -18 43 3 20 11 74 17 120 11 76 13
82 35 82 13 0 206 -27 430 -60 223 -33 416 -60 428 -60 20 0 23 14 62 248 23
136 41 248 40 248 -1 1 -203 31 -450 68 -247 36 -451 68 -453 69 -5 6 29 231
36 239 3 3 197 -22 431 -57 234 -34 439 -64 457 -67 l32 -4 22 90 c92 381 218
731 325 904 284 460 642 665 979 562z"/>
</g>
</svg>
